Coordinates
version=1
nRows=33
nColumns=38
inDegrees=no

Units are S.I. units (second, meters, Newtons, ...)
If the header above contains a line with 'inDegrees', this indicates whether rotational values are in degrees (yes) or radians (no).

endheader
time	pelvis_tilt	pelvis_list	pelvis_rotation	pelvis_tx	pelvis_ty	pelvis_tz	hip_flexion_r	hip_adduction_r	hip_rotation_r	knee_angle_r	ankle_angle_r	subtalar_angle_r	mtp_angle_r	hip_flexion_l	hip_adduction_l	hip_rotation_l	knee_angle_l	ankle_angle_l	subtalar_angle_l	mtp_angle_l	lumbar_extension	lumbar_bending	lumbar_rotation	arm_flex_r	arm_add_r	arm_rot_r	elbow_flex_r	pro_sup_r	wrist_flex_r	wrist_dev_r	arm_flex_l	arm_add_l	arm_rot_l	elbow_flex_l	pro_sup_l	wrist_flex_l	wrist_dev_l
0.47	2.69281	1.47038	-1.07086	0.63677	0.188246	1.05141	0.215869	0.0699623	-0.157821	0.555943	-0.134164	0	0	-0.0958737	-0.0770957	-0.158472	1.02612	-0.137212	0	0	-0.3432	0.16371	-0.0531453	-0.215415	-0.182778	-0.299856	0.482618	0.451193	0	0	0.0868798	-0.662012	0.770141	0.89647	1.09589	0	0
0.48	2.72696	1.47163	-1.10825	0.637982	0.197482	1.05293	0.202928	0.0683515	-0.157551	0.55025	-0.130837	0	0	-0.0713536	-0.0723594	-0.153551	1.05128	-0.130143	0	0	-0.345647	0.158796	-0.0508793	-0.212499	-0.184704	-0.288612	0.479198	0.437303	0	0	0.0739453	-0.656349	0.776892	0.886253	1.08869	0	0
0.49	2.76386	1.47325	-1.1487	0.639118	0.20678	1.05436	0.190048	0.0661215	-0.156893	0.544184	-0.127276	0	0	-0.0470752	-0.067891	-0.150403	1.07171	-0.123818	0	0	-0.347233	0.153553	-0.0489448	-0.209863	-0.186946	-0.276043	0.475529	0.423219	0	0	0.0611077	-0.65092	0.785721	0.875889	1.07852	0	0
0.5	2.80171	1.47482	-1.19046	0.640177	0.21609	1.05569	0.177123	0.0635941	-0.156826	0.537788	-0.123657	0	0	-0.0232578	-0.0640717	-0.150154	1.08791	-0.118112	0	0	-0.348646	0.148443	-0.0466129	-0.207801	-0.188695	-0.266466	0.472495	0.412625	0	0	0.0472047	-0.644133	0.791443	0.864901	1.06922	0	0
0.51	2.84397	1.47599	-1.23664	0.64117	0.225349	1.05693	0.164043	0.0605713	-0.158765	0.53198	-0.119431	0	0	-0.000370709	-0.0603198	-0.151941	1.09991	-0.111879	0	0	-0.350177	0.143207	-0.0441259	-0.206318	-0.19029	-0.257762	0.469986	0.403543	0	0	0.0337864	-0.637073	0.797897	0.853638	1.05895	0	0
0.52	2.89025	1.4776	-1.28661	0.642174	0.234598	1.05816	0.15172	0.0571539	-0.161002	0.526095	-0.115294	0	0	0.0222006	-0.0565558	-0.155662	1.10726	-0.104576	0	0	-0.353085	0.137289	-0.0364722	-0.190532	-0.15531	-0.414371	0.452671	0.568207	0	0	0.0313621	-0.631942	0.824362	0.841482	1.03845	0	0
0.53	2.93544	1.47673	-1.33556	0.643168	0.243677	1.05932	0.136626	0.0544926	-0.164287	0.517559	-0.108788	0	0	0.0418688	-0.054594	-0.163438	1.11044	-0.0926049	0	0	-0.354187	0.132757	-0.0376624	-0.196265	-0.174088	-0.326085	0.456276	0.479803	0	0	0.0263344	-0.630444	0.860479	0.829398	0.997802	0	0
0.54	2.98634	1.47507	-1.38984	0.644082	0.252671	1.06053	0.121146	0.0509133	-0.169279	0.510692	-0.105895	0	0	0.0600926	-0.0523585	-0.172399	1.10965	-0.0871373	0	0	-0.358877	0.127412	-0.0360744	-0.194109	-0.173203	-0.328247	0.455348	0.483748	0	0	0.0121843	-0.622082	0.861049	0.817951	0.99431	0	0
0.55	3.0363	1.47289	-1.44319	0.644909	0.261657	1.06168	0.105146	0.0468318	-0.174643	0.503405	-0.1032	0	0	0.0772372	-0.0502477	-0.182497	1.10525	-0.0831827	0	0	-0.363586	0.121911	-0.0349202	-0.191918	-0.172157	-0.331139	0.455075	0.487083	0	0	-0.00217398	-0.613403	0.861269	0.806421	0.992187	0	0
0.56	3.08288	1.47036	-1.49299	0.645659	0.270649	1.06272	0.0890276	0.0424433	-0.179821	0.496126	-0.100813	0	0	0.0933208	-0.0485586	-0.193736	1.09686	-0.0801092	0	0	-0.368094	0.116412	-0.0342694	-0.189781	-0.170982	-0.334307	0.455291	0.490218	0	0	-0.0163687	-0.604489	0.861603	0.794587	0.991569	0	0
0.57	3.12546	1.46753	-1.53854	0.646348	0.27965	1.06366	0.0730153	0.0378771	-0.184862	0.489442	-0.0988338	0	0	0.10833	-0.047271	-0.205852	1.08464	-0.0776132	0	0	-0.372617	0.110965	-0.0336343	-0.187902	-0.16969	-0.337353	0.455811	0.493601	0	0	-0.0304492	-0.595365	0.861232	0.782938	0.991586	0	0
0.58	-3.11851	1.46471	-1.58016	0.647012	0.28862	1.06441	0.0579076	0.0333868	-0.189617	0.484232	-0.0974769	0	0	0.122897	-0.0462217	-0.217539	1.06934	-0.0755183	0	0	-0.377189	0.105875	-0.0323629	-0.18661	-0.16811	-0.340405	0.456494	0.497176	0	0	-0.0440328	-0.586617	0.860186	0.773115	0.991873	0	0
0.59	-3.09099	1.46078	-1.61042	0.6475	0.297811	1.0653	0.0385835	0.0301817	-0.194608	0.473369	-0.0907732	0	0	0.13436	-0.0462676	-0.232243	1.04956	-0.0748177	0	0	-0.379739	0.101258	-0.0355925	-0.185797	-0.173955	-0.311527	0.457008	0.476228	0	0	-0.0473266	-0.58407	0.901991	0.761738	0.946032	0	0
0.6	-3.06367	1.4581	-1.63977	0.647992	0.306934	1.06589	0.0218799	0.0268291	-0.199089	0.465014	-0.0873241	0	0	0.146483	-0.0466172	-0.247613	1.02709	-0.074255	0	0	-0.382628	0.0969059	-0.0369373	-0.183994	-0.173019	-0.312191	0.457478	0.481441	0	0	-0.0613172	-0.574864	0.903253	0.750604	0.942828	0	0
0.61	-3.03954	1.45588	-1.666	0.648481	0.316099	1.0663	0.00570468	0.0237808	-0.202585	0.456336	-0.0839216	0	0	0.157579	-0.0472225	-0.26443	1.001	-0.0740148	0	0	-0.384863	0.0927431	-0.0381287	-0.182565	-0.172207	-0.312374	0.458162	0.487515	0	0	-0.0752191	-0.565481	0.903863	0.739633	0.939803	0	0
0.62	-3.01923	1.45422	-1.68857	0.648938	0.325309	1.06651	-0.00988007	0.0212323	-0.205537	0.447512	-0.0807755	0	0	0.167699	-0.0478276	-0.281796	0.971248	-0.0738676	0	0	-0.386628	0.0888668	-0.0388334	-0.181531	-0.171435	-0.31254	0.459161	0.493948	0	0	-0.0888266	-0.555929	0.903679	0.729084	0.937201	0	0
0.63	-3.005	1.4531	-1.70429	0.649284	0.334375	1.06645	-0.0239806	0.0193792	-0.209111	0.441704	-0.0798347	0	0	0.177947	-0.0482252	-0.296864	0.940003	-0.072296	0	0	-0.388019	0.0856615	-0.0403407	-0.186638	-0.186886	-0.24041	0.46726	0.420342	0	0	-0.104338	-0.547052	0.897085	0.721776	0.941549	0	0
0.64	-2.98777	1.45212	-1.72252	0.649724	0.343479	1.0663	-0.0382929	0.0176682	-0.211396	0.433371	-0.0759453	0	0	0.186377	-0.0480286	-0.3123	0.903253	-0.0736067	0	0	-0.389832	0.0827014	-0.0395099	-0.179866	-0.168908	-0.315473	0.462004	0.504406	0	0	-0.113548	-0.538584	0.903633	0.711915	0.93851	0	0
0.65	-2.97892	1.45071	-1.73305	0.649991	0.352585	1.06625	-0.0542069	0.016417	-0.212427	0.423417	-0.0703099	0	0	0.19206	-0.0469423	-0.327083	0.861087	-0.0791829	0	0	-0.389092	0.0794617	-0.0451982	-0.176513	-0.174807	-0.287275	0.461456	0.470631	0	0	-0.12422	-0.531508	0.920266	0.701975	0.919224	0	0
0.66	-2.97121	1.45027	-1.74188	0.650229	0.361609	1.06591	-0.0681392	0.01571	-0.213096	0.415677	-0.0668552	0	0	0.198184	-0.0455764	-0.339273	0.817765	-0.0831708	0	0	-0.388891	0.0771548	-0.0483748	-0.171465	-0.173328	-0.293549	0.460739	0.471523	0	0	-0.137235	-0.522017	0.919475	0.692921	0.917883	0	0
0.67	-2.96553	1.45073	-1.74855	0.650385	0.370641	1.06537	-0.0811313	0.0156021	-0.213509	0.408744	-0.0637533	0	0	0.204413	-0.0437086	-0.348528	0.77301	-0.0872329	0	0	-0.388372	0.0751588	-0.0498852	-0.168466	-0.172671	-0.294681	0.461019	0.476825	0	0	-0.1484	-0.51278	0.919673	0.684598	0.918797	0	0
0.68	-2.96616	1.45163	-1.7487	0.65045	0.379582	1.06461	-0.0929892	0.0161434	-0.213845	0.403414	-0.0625683	0	0	0.210791	-0.0424952	-0.356495	0.729275	-0.0886422	0	0	-0.389071	0.0740585	-0.0480005	-0.171414	-0.177531	-0.2721	0.468119	0.452791	0	0	-0.155867	-0.505198	0.925248	0.6787	0.919991	0	0
0.69	-2.96241	1.45332	-1.75311	0.650461	0.388578	1.06378	-0.104188	0.016329	-0.21345	0.396938	-0.0591613	0	0	0.215797	-0.038362	-0.358541	0.679387	-0.094007	0	0	-0.38736	0.072437	-0.0491004	-0.170306	-0.180387	-0.256647	0.469031	0.451047	0	0	-0.164725	-0.496914	0.931828	0.671097	0.921986	0	0
0.7	-2.95273	1.45644	-1.76266	0.650503	0.397626	1.06261	-0.112973	0.0164556	-0.213199	0.39187	-0.0545882	0	0	0.221458	-0.032608	-0.355539	0.627514	-0.0999429	0	0	-0.384011	0.0709245	-0.0510809	-0.162871	-0.16983	-0.298799	0.462482	0.508042	0	0	-0.178233	-0.486834	0.921356	0.663641	0.935996	0	0
0.71	-2.95023	1.46	-1.76551	0.65031	0.406623	1.06149	-0.121045	0.0164781	-0.213895	0.389086	-0.0485858	0	0	0.226511	-0.0256966	-0.347674	0.574381	-0.106731	0	0	-0.378965	0.069282	-0.0554447	-0.16155	-0.179623	-0.253215	0.464197	0.456147	0	0	-0.188465	-0.479676	0.928409	0.658686	0.928331	0	0
0.72	-2.9444	1.4645	-1.77237	0.650147	0.415774	1.0601	-0.127462	0.0162628	-0.213649	0.38641	-0.044004	0	0	0.231628	-0.0187725	-0.338979	0.521679	-0.112618	0	0	-0.373746	0.0679358	-0.0564005	-0.158057	-0.177615	-0.261719	0.46322	0.458138	0	0	-0.199111	-0.470926	0.926922	0.652743	0.930926	0	0
0.73	-2.94048	1.4684	-1.77759	0.649935	0.424927	1.05864	-0.134313	0.0159691	-0.213674	0.383788	-0.0411304	0	0	0.235945	-0.0119299	-0.330387	0.471701	-0.116441	0	0	-0.370309	0.0668115	-0.0543858	-0.157202	-0.175138	-0.273603	0.465446	0.463676	0	0	-0.205218	-0.464248	0.934346	0.648514	0.92953	0	0
0.74	-2.93051	1.47208	-1.78866	0.649676	0.434133	1.05715	-0.140596	0.0147569	-0.214557	0.382962	-0.036304	0	0	0.239124	-0.00325817	-0.318436	0.422127	-0.122034	0	0	-0.365817	0.0647236	-0.0551406	-0.155341	-0.176769	-0.265035	0.465214	0.453595	0	0	-0.214096	-0.457136	0.936522	0.64451	0.929435	0	0
0.75	-2.91667	1.47508	-1.80394	0.649409	0.443425	1.05565	-0.146818	0.0128433	-0.215499	0.383994	-0.0314071	0	0	0.240893	0.00634437	-0.3055	0.374838	-0.128025	0	0	-0.361927	0.061843	-0.0557068	-0.153642	-0.178247	-0.256236	0.46503	0.446301	0	0	-0.223298	-0.450215	0.936697	0.64098	0.928808	0	0
0.76	-2.90089	1.47715	-1.8215	0.649124	0.45283	1.05418	-0.153164	0.0101724	-0.216765	0.386299	-0.0267744	0	0	0.241226	0.0163159	-0.291802	0.330748	-0.134879	0	0	-0.358896	0.0583976	-0.0560118	-0.152173	-0.17943	-0.248555	0.464842	0.439883	0	0	-0.232753	-0.443529	0.934881	0.637943	0.928182	0	0
0.77	-2.88211	1.47823	-1.84274	0.648958	0.46238	1.05267	-0.159245	0.00681015	-0.217733	0.389755	-0.0221403	0	0	0.24016	0.0260732	-0.276818	0.290829	-0.143593	0	0	-0.357225	0.0544092	-0.0556849	-0.145182	-0.166817	-0.301996	0.458047	0.498211	0	0	-0.24797	-0.433018	0.907835	0.632547	0.948913	0	0
0.78	-2.87946	1.47646	-1.84776	0.648508	0.471917	1.0516	-0.169044	0.00309539	-0.218824	0.394087	-0.0163548	0	0	0.234782	0.0353486	-0.260649	0.251817	-0.153354	0	0	-0.358848	0.0504386	-0.0538286	-0.149696	-0.177611	-0.253073	0.466009	0.439543	0	0	-0.248602	-0.43085	0.93207	0.630604	0.927292	0	0
0.79	-2.87708	1.47435	-1.8537	0.648335	0.481703	1.05035	-0.179869	0.000782703	-0.217504	0.398183	-0.0120107	0	0	0.231787	0.0413181	-0.252986	0.226896	-0.155854	0	0	-0.360645	0.0461871	-0.0510931	-0.149143	-0.175656	-0.259843	0.468	0.440274	0	0	-0.254985	-0.425522	0.933132	0.626875	0.927997	0	0
